<?xml version="1.0" encoding="UTF-8" ?>
<svg version="1.1" width="16" height="16" xmlns="http://www.w3.org/2000/svg" shape-rendering="crispEdges">
<rect x="0" y="0" width="7" height="1" fill="#000000" />
<rect x="7" y="0" width="2" height="1" fill="#FFFFFF" />
<rect x="9" y="0" width="7" height="1" fill="#000000" />
<rect x="0" y="1" width="6" height="2" fill="#000000" />
<rect x="6" y="1" width="1" height="2" fill="#FFFFFF" />
<rect x="7" y="1" width="2" height="2" fill="#FFFFFF" opacity="0.749020" />
<rect x="9" y="1" width="1" height="2" fill="#FFFFFF" />
<rect x="10" y="1" width="6" height="2" fill="#000000" />
<rect x="0" y="3" width="5" height="2" fill="#000000" />
<rect x="5" y="3" width="1" height="2" fill="#FFFFFF" />
<rect x="6" y="3" width="1" height="2" fill="#FFFFFF" opacity="0.749020" />
<rect x="7" y="3" width="2" height="5" fill="#FFFFFF" opacity="0.666667" />
<rect x="9" y="3" width="1" height="2" fill="#FFFFFF" opacity="0.749020" />
<rect x="10" y="3" width="1" height="2" fill="#FFFFFF" />
<rect x="11" y="3" width="5" height="2" fill="#000000" />
<rect x="0" y="5" width="4" height="2" fill="#000000" />
<rect x="4" y="5" width="1" height="2" fill="#FFFFFF" />
<rect x="5" y="5" width="1" height="5" fill="#FFFFFF" opacity="0.854902" />
<rect x="6" y="5" width="1" height="2" fill="#FFFFFF" opacity="0.666667" />
<rect x="9" y="5" width="1" height="2" fill="#FFFFFF" opacity="0.666667" />
<rect x="10" y="5" width="1" height="5" fill="#FFFFFF" opacity="0.854902" />
<rect x="11" y="5" width="1" height="2" fill="#FFFFFF" />
<rect x="12" y="5" width="4" height="2" fill="#000000" />
<rect x="0" y="7" width="3" height="9" fill="#000000" />
<rect x="3" y="7" width="1" height="1" fill="#FFFFFF" />
<rect x="4" y="7" width="1" height="1" fill="#FFFFFF" opacity="0.854902" />
<rect x="6" y="7" width="1" height="1" fill="#FFFFFF" />
<rect x="9" y="7" width="1" height="1" fill="#FFFFFF" />
<rect x="11" y="7" width="1" height="1" fill="#FFFFFF" opacity="0.854902" />
<rect x="12" y="7" width="1" height="1" fill="#FFFFFF" />
<rect x="13" y="7" width="3" height="9" fill="#000000" />
<rect x="3" y="8" width="1" height="6" fill="#000000" />
<rect x="4" y="8" width="1" height="2" fill="#FFFFFF" />
<rect x="6" y="8" width="4" height="1" fill="#FFFFFF" opacity="0.854902" />
<rect x="11" y="8" width="1" height="2" fill="#FFFFFF" />
<rect x="12" y="8" width="1" height="6" fill="#000000" />
<rect x="6" y="9" width="4" height="1" fill="#FFFFFF" />
<rect x="4" y="10" width="1" height="2" fill="#000000" />
<rect x="5" y="10" width="1" height="2" fill="#FFFFFF" />
<rect x="6" y="10" width="1" height="3" fill="#FFFFFF" opacity="0.854902" />
<rect x="7" y="10" width="2" height="4" fill="#FFFFFF" />
<rect x="9" y="10" width="1" height="3" fill="#FFFFFF" opacity="0.854902" />
<rect x="10" y="10" width="1" height="2" fill="#FFFFFF" />
<rect x="11" y="10" width="1" height="2" fill="#000000" />
<rect x="4" y="12" width="1" height="3" fill="#FFFFFF" />
<rect x="5" y="12" width="1" height="2" fill="#FFFFFF" opacity="0.854902" />
<rect x="10" y="12" width="1" height="2" fill="#FFFFFF" opacity="0.854902" />
<rect x="11" y="12" width="1" height="3" fill="#FFFFFF" />
<rect x="6" y="13" width="1" height="1" fill="#FFFFFF" />
<rect x="9" y="13" width="1" height="1" fill="#FFFFFF" />
<rect x="3" y="14" width="1" height="2" fill="#FFFFFF" />
<rect x="5" y="14" width="1" height="1" fill="#FFFFFF" />
<rect x="6" y="14" width="4" height="2" fill="#000000" />
<rect x="10" y="14" width="1" height="1" fill="#FFFFFF" />
<rect x="12" y="14" width="1" height="2" fill="#FFFFFF" />
<rect x="4" y="15" width="2" height="1" fill="#000000" />
<rect x="10" y="15" width="2" height="1" fill="#000000" />
</svg>